<?xml version="1.0" encoding="utf-8"?>
<!-- Generator: Adobe Illustrator 26.0.1, SVG Export Plug-In . SVG Version: 6.00 Build 0)  -->
<svg version="1.1" id="f-pattern" xmlns="http://www.w3.org/2000/svg" xmlns:xlink="http://www.w3.org/1999/xlink" x="0px" y="0px"
	 viewBox="0 0 348 192" style="enable-background:new 0 0 348 192;" xml:space="preserve">
<style type="text/css">
	.st0{fill-rule:evenodd;clip-rule:evenodd;fill:#003442;}
	.st1{fill:#003442;}
	.st2{fill-rule:evenodd;clip-rule:evenodd;fill:#EEEEEE;}
	.st3{fill:none;stroke:#DF3A32;stroke-miterlimit:10;}
	.st4{fill-rule:evenodd;clip-rule:evenodd;fill:#DF3A32;}
	.st5{fill:#DF3A32;}
</style>
<path class="st0" d="M3.1,156h73.8c1.7,0,3,1.3,3.1,2.9c0,0,0,0.1,0,0.1v30c0,1.7-1.3,3-3,3c0,0-0.1,0-0.1,0H3.1
	c-1.7,0-3-1.3-3.1-2.9c0,0,0-0.1,0-0.1v-30C0,157.3,1.3,156,3.1,156C3,156,3.1,156,3.1,156z"/>
<path id="_Path_" class="st1" d="M166,192H94c-2.2,0.1-3.9-1.6-4-3.8v-28.4c0.1-2.2,1.8-3.8,4-3.8h72c2.2-0.1,3.9,1.6,4,3.8v28.4
	C169.9,190.4,168.2,192.1,166,192z M94,157.9c-1.1,0-1.9,0.8-2,1.9v28.4c0.1,1.1,0.9,1.9,2,1.9h72c1.1,0,1.9-0.8,2-1.9v-28.4
	c-0.1-1.1-0.9-1.9-2-1.9H94z"/>
<path class="st2" d="M0,0h132v24H0V0z"/>
<path class="st2" d="M0,48h320v16H0V48z"/>
<path class="st2" d="M0,72h164v16H0V72z"/>
<path class="st2" d="M0,96h132v16H0V96z"/>
<line class="st3" x1="8" y1="12" x2="8" y2="174.2"/>
<line class="st3" x1="8" y1="56" x2="312" y2="56"/>
<line class="st3" x1="8" y1="12" x2="116" y2="12"/>
<line class="st3" x1="8" y1="80" x2="156" y2="80"/>
<line class="st3" x1="8" y1="104" x2="124" y2="104"/>
<polygon class="st4" points="66.2,12 62,13.8 57.8,15.6 57.8,12 57.8,8.4 62,10.2 "/>
<polygon class="st4" points="8,38.2 6.2,34 4.4,29.8 8,29.8 11.6,29.8 9.8,34 "/>
<polygon class="st4" points="8,143.2 6.2,139 4.4,134.8 8,134.8 11.6,134.8 9.8,139 "/>
<polygon class="st4" points="164.2,56 160,57.8 155.8,59.6 155.8,56 155.8,52.4 160,54.2 "/>
<polygon class="st4" points="86.2,80 82,81.8 77.8,83.6 77.8,80 77.8,76.4 82,78.2 "/>
<polygon class="st4" points="70.2,104 66,105.8 61.8,107.6 61.8,104 61.8,100.4 66,102.2 "/>
<circle class="st5" cx="124" cy="12" r="8"/>
<circle class="st5" cx="8" cy="12" r="8"/>
<circle class="st5" cx="312" cy="56" r="8"/>
<circle class="st5" cx="8" cy="56" r="8"/>
<circle class="st5" cx="156" cy="80" r="8"/>
<circle class="st5" cx="8" cy="80" r="8"/>
<circle class="st5" cx="124" cy="104" r="8"/>
<circle class="st5" cx="8" cy="104" r="8"/>
<circle class="st5" cx="8" cy="174" r="8"/>
</svg>
