<?xml version="1.0" encoding="utf-8"?>
<!-- Generator: Adobe Illustrator 26.0.1, SVG Export Plug-In . SVG Version: 6.00 Build 0)  -->
<svg version="1.1" id="z-pattern" xmlns="http://www.w3.org/2000/svg" xmlns:xlink="http://www.w3.org/1999/xlink" x="0px" y="0px"
	 viewBox="0 0 348 192" style="enable-background:new 0 0 348 192;" xml:space="preserve">
<style type="text/css">
	.st0{fill-rule:evenodd;clip-rule:evenodd;fill:#003442;}
	.st1{fill:#003442;}
	.st2{fill-rule:evenodd;clip-rule:evenodd;fill:#EEEEEE;}
	.st3{fill:none;stroke:#DF3A32;stroke-miterlimit:10;}
	.st4{fill-rule:evenodd;clip-rule:evenodd;fill:#DF3A32;}
	.st5{fill:#DF3A32;}
</style>
<path class="st0" d="M271.1,156h73.8c1.7,0,3,1.3,3.1,2.9c0,0,0,0.1,0,0.1v30c0,1.7-1.3,3-3,3c0,0-0.1,0-0.1,0h-73.8
	c-1.7,0-3-1.3-3.1-2.9c0,0,0-0.1,0-0.1v-30C268,157.3,269.3,156,271.1,156C271,156,271.1,156,271.1,156z"/>
<path id="_Path_" class="st1" d="M254,192h-72c-2.2,0.1-3.9-1.6-4-3.8v-28.4c0.1-2.2,1.8-3.8,4-3.8h72c2.2-0.1,3.9,1.6,4,3.8v28.4
	C257.9,190.4,256.2,192.1,254,192z M182,157.9c-1.1,0-1.9,0.8-2,1.9v28.4c0.1,1.1,0.9,1.9,2,1.9h72c1.1,0,1.9-0.8,2-1.9v-28.4
	c-0.1-1.1-0.9-1.9-2-1.9H182z"/>
<path class="st2" d="M0,96h228v16H0V96z"/>
<path class="st2" d="M0,72h302v16H0V72z"/>
<path class="st2" d="M0,48h320v16H0V48z"/>
<path class="st2" d="M0,0h132v24H0V0z"/>
<line class="st3" x1="8" y1="174" x2="308" y2="174"/>
<line class="st3" x1="8" y1="174" x2="340" y2="12"/>
<line class="st3" x1="8" y1="12" x2="340" y2="12"/>
<polygon class="st4" points="162.2,174 158,175.8 153.8,177.6 153.8,174 153.8,170.4 158,172.2 "/>
<polygon class="st4" points="170.9,93.9 173.7,90.4 176.6,86.8 178.3,90 180,93.1 175.4,93.5 "/>
<polygon class="st4" points="178.2,12 174,13.8 169.8,15.6 169.8,12 169.8,8.4 174,10.2 "/>
<circle class="st5" cx="308" cy="174" r="8"/>
<circle class="st5" cx="8" cy="174" r="8"/>
<circle class="st5" cx="340" cy="12" r="8"/>
<circle class="st5" cx="8" cy="12" r="8"/>
</svg>
