<svg height="207" viewBox="0 0 318 207" width="318" xmlns="http://www.w3.org/2000/svg" xmlns:xlink="http://www.w3.org/1999/xlink"><defs><rect id="a" height="36" rx="3" width="78"/><mask id="b" fill="#fff" height="36" width="78" x="0" y="0"><use xlink:href="#a"/></mask></defs><g fill="none" fill-rule="evenodd"><rect fill="#0079b8" height="36" rx="3" width="78" x="7" y="168"/><use mask="url(#b)" stroke="#0079b8" stroke-width="2" transform="translate(98 168)" xlink:href="#a"/><g opacity=".05"><path d="m7 0h108v24h-108z" fill="#000"/><path d="m18 180h56v12h-56z" fill="#fff"/><path d="m110 179h56v12h-56z" fill="#0079b8"/><g fill="#565656"><path d="m6 42h312v14h-312z"/><path d="m6 65h294v14h-294z"/><path d="m6 89h221v14h-221z"/></g></g><g transform="translate(0 4)"><path d="m6.5 7.5h105" stroke="#853fb3" stroke-linecap="square"/><g fill="#853fb3"><g stroke="#853fb3" stroke-linecap="square"><path d="m12.5 7.5h51"/><path d="m63.5 7.5-10.8-3v6z"/><path d="m6.5 7.5v132"/><path d="m6.5 139.5 3-10.8h-6z"/></g><circle cx="7" cy="7" r="7"/><circle cx="115" cy="7" r="7"/></g></g><g transform="translate(0 50)"><path d="m6.5 7.5h70" stroke="#853fb3" stroke-linecap="square"/><g fill="#853fb3"><circle cx="7" cy="7" r="7"/><circle cx="83" cy="7" r="7"/></g></g><g transform="matrix(0 1 -1 0 14 4)"><path d="m6.5 7.5h195" stroke="#853fb3" stroke-linecap="square"/><g fill="#853fb3"><circle cx="7" cy="7" r="7"/><circle cx="196" cy="7" r="7"/></g></g><g transform="translate(0 88)"><path d="m6.5 7.5h44" stroke="#853fb3" stroke-linecap="square"/><g fill="#853fb3"><circle cx="7" cy="7" r="7"/><circle cx="54" cy="7" r="7"/></g></g></g></svg>