<svg height="257" viewBox="0 0 368 257" width="368" xmlns="http://www.w3.org/2000/svg" xmlns:xlink="http://www.w3.org/1999/xlink"><defs><rect id="a" height="249" rx="3" width="360"/><filter id="b" height="200%" width="200%" x="-50%" y="-50%"><feMorphology in="SourceAlpha" operator="dilate" radius="1" result="shadowSpreadOuter1"/><feOffset dx="0" dy="2" in="shadowSpreadOuter1" result="shadowOffsetOuter1"/><feGaussianBlur in="shadowOffsetOuter1" result="shadowBlurOuter1" stdDeviation="1"/><feColorMatrix in="shadowBlurOuter1" type="matrix" values="0 0 0 0 0   0 0 0 0 0   0 0 0 0 0  0 0 0 0.0701992754 0"/></filter><rect id="c" height="36" rx="3" width="78"/><mask id="d" fill="#fff" height="36" width="78" x="0" y="0"><use xlink:href="#c"/></mask></defs><g fill="none" fill-rule="evenodd"><g transform="translate(4 2)"><use fill="#000" filter="url(#b)" xlink:href="#a"/><use fill="#fff" fill-rule="evenodd" xlink:href="#a"/></g><rect fill="#0079b8" height="36" rx="3" width="78" x="261" y="192"/><use mask="url(#d)" stroke="#0079b8" stroke-width="2" transform="translate(172 192)" xlink:href="#c"/><g opacity=".05"><path d="m28 24h108v24h-108z" fill="#000"/><path d="m272 204h56v12h-56z" fill="#fff"/><path d="m184 203h56v12h-56z" fill="#0079b8"/><g fill="#565656"><path d="m27 66h312v14h-312z"/><path d="m27 89h294v14h-294z"/><path d="m27 113h221v14h-221z"/></g></g><g transform="translate(22 28)"><g stroke="#853fb3" stroke-linecap="square"><path d="m6.5 7.5h311"/><path d="m10.5 182.5h301"/><path d="m6.5 183.5 311-176"/></g><g fill="#853fb3"><path d="m6.5 7.5h168" stroke="#853fb3" stroke-linecap="square"/><path d="m174.5 7.5-10.8-3v6z" stroke="#853fb3" stroke-linecap="square"/><circle cx="7" cy="7" r="7"/><circle cx="313" cy="7" r="7"/><circle cx="7" cy="183" r="7"/><circle cx="307" cy="182" r="7"/></g></g></g></svg>