<?xml version="1.0" encoding="utf-8"?>
<!-- Generator: Adobe Illustrator 26.0.1, SVG Export Plug-In . SVG Version: 6.00 Build 0)  -->
<svg version="1.1" id="Layer_1" xmlns="http://www.w3.org/2000/svg" xmlns:xlink="http://www.w3.org/1999/xlink" x="0px" y="0px"
	 viewBox="0 0 372 224" style="enable-background:new 0 0 372 224;" xml:space="preserve">
<style type="text/css">
	.st0{fill-rule:evenodd;clip-rule:evenodd;fill:#003442;}
	.st1{fill:#003442;}
	.st2{fill-rule:evenodd;clip-rule:evenodd;fill:#EEEEEE;}
	.st3{display:none;}
	.st4{display:inline;fill:#DF3A32;}
	.st5{display:inline;}
	.st6{fill:#DF3A32;}
	.st7{fill-rule:evenodd;clip-rule:evenodd;fill:#DF3A32;}
</style>
<g>
	<path class="st0" d="M281,172h72c1.7,0,3,1.3,3,3v30c0,1.7-1.3,3-3,3h-72c-1.7,0-3-1.3-3-3v-30C278,173.3,279.3,172,281,172z"/>
	<path transform="translate(172 192)" class="st1" d="M264,208h-72c-2.2,0-4-1.7-4-3.8v-28.4c0-2.1,1.8-3.8,4-3.8h72
		c2.2,0,4,1.7,4,3.8v28.4C268,206.3,266.2,208,264,208z M192,173.9c-1.1,0-2,0.9-2,1.9v28.4c0,1,0.9,1.9,2,1.9h72c1.1,0,2-0.9,2-1.9
		v-28.4c0-1-0.9-1.9-2-1.9H192z"/>
</g>
<path class="st2" d="M16,16h124v24H16V16z"/>
<path class="st2" d="M16,64h312v16H16V64z"/>
<path class="st2" d="M16,88h294v16H16V88z"/>
<path class="st2" d="M16,112h220v16H16V112z"/>
<g transform="translate(22 28)" class="st3">
	<rect x="-27" y="84.9" transform="matrix(0.887 -0.4617 0.4617 0.887 -21.602 82.6515)" class="st4" width="370.2" height="1.1"/>
	<rect x="-6" y="171.5" class="st4" width="298" height="1"/>
	<rect x="-6" y="-0.5" class="st4" width="328" height="1"/>
	<g class="st5">
		<g>
			<path class="st6" d="M151.4,3.7v-7.3L164.6,0L151.4,3.7z"/>
		</g>
		<circle class="st7" cx="-6" cy="0" r="8"/>
		<circle class="st7" cx="322" cy="0" r="8"/>
		<circle class="st7" cx="-6" cy="172" r="8"/>
		<circle class="st7" cx="291" cy="172" r="8"/>
	</g>
</g>
<circle class="st7" cx="348" cy="28" r="8"/>
<circle class="st7" cx="16" cy="28" r="8"/>
<circle class="st7" cx="317" cy="190" r="8"/>
<circle class="st7" cx="16" cy="190" r="8"/>
</svg>
